<svg width="268" height="507" viewBox="0 0 268 507" fill="none" xmlns="http://www.w3.org/2000/svg">
<path d="M121.28 169.437C121.28 150.589 121.28 85.2118 121.28 66.3643" stroke="#464753" stroke-width="6" stroke-linecap="round" stroke-linejoin="round"/>
<path d="M119.518 4.51628C105.65 32.3298 93.0414 58.1007 93.0414 90.0615C93.0414 93.7073 91.4986 102.771 93.9066 105.946C100.644 114.83 121.861 115.197 130.593 111.359C135.627 109.146 158.454 99.841 158.454 92.28C158.454 76.8269 147.495 66.9891 140.63 54.0331C135.134 43.6614 129.031 33.6086 125.401 22.4417C123.855 17.6835 125.124 13.2196 124.104 8.50958C123.416 5.33608 118.352 0.518209 116.403 4.51628" stroke="#464753" stroke-width="6" stroke-linecap="round" stroke-linejoin="round"/>
<path d="M122.686 456.062C102.745 457.521 72.1526 464.292 72.1526 464.292C72.1526 464.292 83.9045 363.772 72.1526 328.502C60.4006 293.232 58.1144 257.021 60.4006 210.936C61.9304 180.099 42.0874 139.728 72.1526 132.754C94.5033 127.57 119.16 137.457 122.686 162.734C126.212 188.01 119.169 123.937 159.117 162.734C199.064 201.531 172.044 307.928 182.033 389.637C192.022 471.346 178.508 447.832 164.993 456.062C151.478 464.292 139.164 454.857 122.686 456.062Z" fill="#464753" stroke="#464753"/>
<path d="M79.2306 415.563C72.8978 425.961 66.8359 435.331 58.2707 443.906C52.3426 449.841 40.0329 458.872 40.0329 468.298C40.0329 476.469 21.0562 486.694 41.2578 486.694C45.7336 486.694 49.5555 481.519 53.371 479.336C56.746 477.405 61.8787 477.983 64.6675 475.657C67.7566 473.079 76.7807 469.167 76.7807 475.657C76.7807 483.176 73.0399 482.569 69.5672 487.784C41.3241 530.2 89.3109 475.059 93.9297 483.151C96.9189 488.389 101.536 491.627 104.954 485.468C107.561 480.77 103.635 477.468 101.279 473.34C97.8847 467.392 77.5205 460.907 70.6561 459.849C59.5984 458.146 45.7011 458.196 36.3581 463.392C30.2716 466.778 24.6975 462.803 19.2091 468.298C16.4327 471.078 4.36153 475.842 3.42116 469.252C0.889792 451.511 10.0127 454.808 24.2449 454.808C33.0586 454.808 36.8148 451.299 43.7077 449.766C46.5627 449.13 48.1068 445.269 51.0572 445.269C53.6978 445.269 55.3423 448.151 58.2707 447.313C61.7454 446.319 64.2306 442.544 68.2062 442.544C73.9327 442.544 70.9582 449.902 78.0056 449.902C88.9109 449.902 98.1568 446.731 109.718 450.038C115.153 451.593 84.2768 467.072 112.304 467.072C136.907 467.072 110.749 486.075 111.487 487.921C112.516 490.497 139.216 490.744 142.382 491.6C145.001 492.307 168.261 499.269 166.881 496.505C165.133 493.005 156.037 487.97 152.726 484.241C147.488 478.342 158.364 473.967 157.081 472.522C150.564 465.181 135.804 471.719 128.772 473.885C125.87 474.779 140.496 459.08 142.382 463.801C146.478 474.052 150.69 483.553 164.431 478.791C168.959 477.221 171.212 472.312 177.225 471.977C184.034 471.599 182.674 481.188 189.474 483.696C195.862 486.053 202.388 474.824 209.073 474.43C209.106 474.428 188.31 465.71 184.574 462.166C181.856 459.588 196.666 458.153 199.273 459.168C201.638 460.089 204.154 459.568 206.623 459.713C210.166 459.922 213.223 466.346 215.878 468.434C219.759 471.487 237.625 476.563 228.672 467.072C218.328 456.106 241.369 458.066 250.176 455.353C256.125 453.52 256.076 451.313 262.425 449.357C273.039 446.087 246.338 447.506 243.371 447.449C228.277 447.159 220.502 441.859 210.978 433.277C205.327 428.185 180.073 432.732 206.079 432.732C214.281 432.732 221.874 432.868 221.322 422.921C221.238 421.411 216.001 420.468 217.511 420.468C221.05 420.468 224.589 420.468 228.127 420.468C240.977 420.468 229.462 415.698 222.411 415.563C212.023 415.363 202.501 413.913 192.468 413.11C184.545 412.475 200.313 411.024 198.729 408.204C195.174 401.876 185.326 407.469 199.273 408.204C208.052 408.667 207.197 400.846 198.729 400.846C190.138 400.846 201.012 405.374 205.534 400.846C207.591 398.786 199.66 400.95 196.824 400.301C191.909 399.176 187.745 398.393 182.669 398.393C178.771 398.393 173.928 400.089 172.325 403.299" stroke="#464753" stroke-width="6" stroke-linecap="round" stroke-linejoin="round"/>
</svg>
