<svg width="213" height="314" viewBox="0 0 213 314" fill="none" xmlns="http://www.w3.org/2000/svg">
<path d="M41.0279 283.456C25.2149 302.912 -9.9375 297.458 9.92201 271.932C22.5941 255.644 31.1472 233.749 31.1472 212.666C31.1472 153.259 36.5864 95.3936 54.2022 38.1596C68.0402 -6.80011 116.413 -1.02643 149.716 19.3188C171.918 32.883 180.613 62.3743 188.507 85.1702C195.121 104.273 192.532 125.533 192.532 145.9C192.532 162.53 189.117 183.31 192.715 199.495C197.07 219.087 209 238.221 209 258.762C209 273.064 200.758 293.327 184.298 280.163C180.29 276.958 169.614 270.515 164.72 275.407C161.983 278.143 156.644 299.894 148.252 291.504C140.245 283.5 134.318 259.193 124.099 283.456C119.812 293.634 126.409 299.23 117.512 307.236C110.642 313.417 103.606 308.469 103.606 299.919C103.606 289.296 101.311 288.206 94.457 282.724C85.6147 275.653 84.5567 287.666 80.5508 286.017C76.3714 284.296 62.4082 276.716 58.2277 280.895C51.0892 288.031 53.8646 290.041 41.0279 290.041" stroke="white" stroke-width="7" stroke-linecap="round" stroke-linejoin="round"/>
<path d="M87.0317 86C71.4327 92.6261 64 97.5366 64 113.952C64 119.365 69.6495 136.706 75.6986 138.433C96.6338 144.412 91.4039 101.317 87.0317 92.577" stroke="white" stroke-width="17" stroke-linecap="round" stroke-linejoin="round"/>
<path d="M138.986 92C122.584 104.703 124.93 112.317 128.851 129.81C130.64 137.789 140.189 145.177 148.936 140.587C166.484 131.378 151.782 101.63 138.986 95.2879" stroke="white" stroke-width="17" stroke-linecap="round" stroke-linejoin="round"/>
</svg>
