<svg width="285" height="288" viewBox="0 0 285 288" fill="none" xmlns="http://www.w3.org/2000/svg">
<path d="M10.3524 120.021C18.6592 111.069 23.1292 97.3258 23.1292 84.9697C23.1292 75.111 31.637 66.8134 35.906 59.0056C46.4059 39.8021 68.8869 38.0668 85.4161 26.5504" stroke="white" stroke-width="7" stroke-linecap="round" stroke-linejoin="round"/>
<path d="M10.3524 120.021C5.89217 131.538 0.972014 155.111 6.35966 167.499C8.30837 171.979 10.0859 177.044 10.3524 181.779C10.4812 184.067 12.4824 184.697 11.8608 187.621C11.093 191.231 9.28463 194.879 8.84404 198.563C7.63294 208.689 6.28994 230.223 10.7073 239.456C11.6449 241.416 25.2029 238.349 27.9205 239.364C30.9803 240.506 39.1016 245.206 39.1002 245.206" stroke="white" stroke-width="7" stroke-linecap="round" stroke-linejoin="round"/>
<path d="M150.897 251.882C160.005 246.443 168.023 243.119 178.403 243.536C182.22 243.69 197.192 248.572 200.407 244.371C203.845 239.881 210.112 235.249 214.071 231.111C218.206 226.79 217.975 219.787 217.975 213.492C217.975 205.458 216.378 197.991 216.378 190.125C216.378 179.517 222.509 173.393 224.453 164.253C226.003 156.96 233.946 152.99 233.946 144.224C233.946 138.593 236.402 133.249 238.738 128.367" stroke="white" stroke-width="7" stroke-linecap="round" stroke-linejoin="round"/>
<path d="M216.379 205.147C230.75 202.216 251.589 201.683 261.097 188.084C267.082 179.526 272.755 172.545 275.116 161.749C277.494 150.877 278.251 138.491 280.174 127.44C281.409 120.337 281.701 106.614 277.867 100.826C273.535 94.2877 267.99 88.6665 263.049 82.9296C257.825 76.8627 257.297 67.1079 253.112 60.3038C248.952 53.5416 247.488 45.58 242.642 39.0688C223.928 13.9224 186.702 15.438 160.125 6.89181C144.716 1.93681 130.202 4.85177 114.963 4.85177C104.195 4.85177 95.3238 15.0291 87.0134 21.543" stroke="white" stroke-width="7" stroke-linecap="round" stroke-linejoin="round"/>
<path d="M26.3235 91.6462C31.2096 89.6535 42.8379 88.3266 45.8436 83.3006C49.138 77.7918 49.8121 73.0838 51.8771 66.6094" stroke="white" stroke-width="7" stroke-linecap="round" stroke-linejoin="round"/>
<path d="M47.0857 86.6389C58.8839 84.233 78.1378 89.7031 85.4161 78.2933" stroke="white" stroke-width="7" stroke-linecap="round" stroke-linejoin="round"/>
<path d="M158.883 88.308C165.414 86.976 168.719 86.5953 174.144 88.2152C176.063 88.7881 183.176 89.1205 184.436 87.4734C185.845 85.6329 191.756 85.6501 194.019 84.5988C199.125 82.2272 200.976 78.267 205.554 74.955C213.142 69.4647 216.444 61.6412 223.565 55.8528C227.708 52.4854 230.171 43.5452 233.947 41.5725" stroke="white" stroke-width="7" stroke-linecap="round" stroke-linejoin="round"/>
<path d="M181.242 91.6462C180.074 97.9014 178.868 100.559 183.194 104.628C185.867 107.142 186.705 109.656 182.839 111.676" stroke="white" stroke-width="7" stroke-linecap="round" stroke-linejoin="round"/>
<path d="M200.407 86.6388C200.407 89.4207 200.407 92.2025 200.407 94.9844" stroke="white" stroke-width="7" stroke-linecap="round" stroke-linejoin="round"/>
<path d="M91.8045 213.492C91.7247 213.626 85.1567 225.479 83.9077 220.91C83.3727 218.953 83.6964 216.06 84.6175 214.327C86.7382 210.337 88.0208 207.785 89.8525 203.477C92.8729 196.375 93.379 188.509 96.5958 180.944C101.569 169.249 105.93 188.787 106.178 193.463C106.582 201.055 106.178 208.403 106.178 215.81C106.178 224.094 107.809 199.046 106.09 190.959C105.652 188.902 104.17 180.139 103.339 181.779C101.024 186.35 99.999 189.851 96.9507 193.834C95.1291 196.213 96.1437 201.852 94.2001 203.477C92.8351 204.619 88.5686 212.267 90.2074 207.558C92.9633 199.637 96.4203 193.829 99.79 186.786" stroke="white" stroke-width="7" stroke-linecap="round" stroke-linejoin="round"/>
<path d="M160.48 133.374C155.05 126.111 147.281 119.871 138.12 124.658C132.072 127.818 134.099 142 138.12 146.727C142.579 151.969 144.239 163.274 146.461 169.724C148.678 176.161 157.01 181.181 160.48 187.528C162.973 192.088 168.324 198.393 173.966 196.708C178.456 195.368 184.351 183.738 187.63 180.11C194.644 172.348 186.008 144.119 177.249 140.051C173.078 138.113 171.801 136.409 166.868 136.712C163.899 136.895 161.931 139.86 158.883 135.878C155.455 131.4 152.506 134.893 150.542 138.382C147.171 144.371 151.794 131.208 146.904 137.454C140.976 145.027 146.639 130.881 140.96 136.342C136.843 140.299 139.717 137.735 139.717 144.131C139.717 150.825 147.629 138.348 144.864 150.993C143.181 158.687 154.615 141.601 149.3 153.404C143.67 165.907 161.774 141.87 155.6 154.238C147.782 169.897 163.172 150.247 161.722 155.444C161.491 156.271 158.381 159.581 159.947 158.967C161.59 158.324 165.399 153.994 165.182 155.351C164.93 156.934 162.624 162.115 162.787 161.935C166.397 157.94 168.859 153.2 172.99 149.602C174.181 148.565 167.167 174.004 166.868 167.128C166.716 163.618 166.271 173.52 167.844 173.155C170.297 172.585 179.269 163.812 171.659 171.764C169.187 174.348 171.181 177.022 168.465 178.441" stroke="white" stroke-width="7" stroke-linecap="round" stroke-linejoin="round"/>
<path d="M48.6828 133.374C36.3784 130.865 31.8389 137.897 29.4289 149.231C27.6729 157.489 24.7263 165.609 24.7263 174.268C24.7263 180.875 36.3576 186.786 41.4959 186.786C50.2608 186.786 55.4275 186.215 62.3469 180.017C68.044 174.914 65.7673 158.913 73.3491 156.649C82.1493 154.022 77.6272 140.754 75.035 135.878C73.3198 132.651 57.1836 127.1 55.0712 130.963C52.7929 135.13 48.6643 138.083 46.2872 142.554C44.4236 146.06 43.7441 151.098 41.4071 154.238C35.0751 162.747 46.3063 144.732 40.6973 145.058C31.4728 145.594 35.3646 163.899 35.906 168.426C36.7043 175.1 52.7072 154.205 55.0712 151.735C55.6347 151.146 63.944 145.718 63.944 147.098C63.944 150.015 54.5587 154.871 53.1192 158.782C51.1733 164.07 46.7492 167.454 47.0857 173.433C47.3438 178.018 55.1033 173.719 56.3134 171.764C59.9988 165.812 70.6223 154.628 71.0422 146.727C71.4231 139.562 72.6393 142.948 72.6393 148.396C72.6393 153.18 69.4155 156.062 67.4931 160.08C64.3518 166.646 61.447 173.998 55.0712 178.441" stroke="white" stroke-width="7" stroke-linecap="round" stroke-linejoin="round"/>
<path d="M56.6682 141.72C80.535 141.72 42.6267 144.517 54.2726 141.813C60.2233 140.431 54.5989 142.337 52.2318 145.429C48.1642 150.743 48.6827 145.592 48.6827 140.051" stroke="white" stroke-width="7" stroke-linecap="round" stroke-linejoin="round"/>
<path d="M47.0857 175.102C42.501 176.015 24.7263 179.128 24.7263 170.095C24.7263 162.048 38.2182 170.385 41.4071 172.506C44.8969 174.827 45.4886 173.367 45.4886 178.441C45.4886 180.596 49.3422 186.421 50.1912 182.428C51.8418 174.665 49.6263 163.637 53.1192 156.742C54.732 153.558 59.1072 155.749 58.1767 159.153C57.3612 162.136 56.653 152.066 56.6683 151.364C56.7118 149.363 57.2683 135.819 60.5723 136.805C62.1191 137.267 65.4902 139.98 67.0495 140.885C74.2193 145.048 59.0028 145.058 55.0712 145.058C48.6828 145.058 29.5176 145.058 35.906 145.058" stroke="white" stroke-width="7" stroke-linecap="round" stroke-linejoin="round"/>
<path d="M157.286 161.749C157.442 169.903 157.786 173.67 162.077 179.275C163.731 181.436 167.819 179.308 170.062 180.481C177.604 184.421 178.048 192.561 178.048 178.811C178.048 172.942 181.999 152.242 173.257 151.735C166.499 151.342 159.561 150.381 154.979 144.224C153.135 141.746 151.069 139.763 150.897 136.712C150.723 133.623 147.394 134.223 146.106 132.54C144.047 129.85 144.723 138.057 145.219 139.123C148.538 146.266 152.763 153.069 156.487 159.987C160.046 166.6 162.243 168.789 163.763 175.937C164.359 178.741 171.66 192.953 171.66 186.786" stroke="white" stroke-width="7" stroke-linecap="round" stroke-linejoin="round"/>
<path d="M155.688 141.72C162.392 141.72 165.277 140.799 169.707 145.429C171.371 147.167 173.503 151.22 174.854 148.396" stroke="white" stroke-width="7" stroke-linecap="round" stroke-linejoin="round"/>
<path d="M186.034 170.095C185.582 172.513 185.401 185.596 182.041 179.275C180.641 176.643 181.242 173.031 181.242 170.095" stroke="white" stroke-width="7" stroke-linecap="round" stroke-linejoin="round"/>
<path d="M149.3 170.095C147.571 165.464 144.509 159.397 144.509 154.238C144.509 150.946 145.331 146.464 144.154 143.389C142.157 138.172 140.933 133.374 134.926 133.374" stroke="white" stroke-width="7" stroke-linecap="round" stroke-linejoin="round"/>
<path d="M42.2944 140.051C41.7448 140.468 33.2187 145.27 34.6638 143.76C35.9323 142.434 36.5745 143.661 37.5031 141.72" stroke="white" stroke-width="7" stroke-linecap="round" stroke-linejoin="round"/>
<path d="M94.9988 218.5C97.9988 222.81 101.387 230.872 101.387 221.838" stroke="white" stroke-width="7" stroke-linecap="round" stroke-linejoin="round"/>
<path d="M37.5032 245.206C48.5965 247.75 51.8771 250.078 51.8771 261.062C51.8771 268.026 51.3046 270.909 56.3135 275.621C65.6684 284.42 72.6394 271.043 72.6394 262.917C72.6394 258.768 71.0423 271.101 71.0423 275.25C71.0423 280.845 77.2277 280.859 81.4234 281.833C87.0287 283.135 91.8046 281.92 91.8046 275.25C91.8046 269.971 91.8046 261.785 91.8046 271.911C91.8046 276.144 96.9271 280.714 100.677 281.833C108.528 284.178 106.642 283.407 110.615 278.217C113.033 275.058 112.567 262.21 112.567 266.255C112.567 272.872 113.651 278.335 119.665 281.926C132.77 289.752 130.135 273.574 130.135 264.4C130.135 260.082 139.566 262.357 142.557 259.857C144.615 258.136 149.601 250.213 149.3 250.213" stroke="white" stroke-width="6" stroke-linecap="round" stroke-linejoin="round"/>
</svg>
