<svg width="438" height="654" viewBox="0 0 438 654" fill="none" xmlns="http://www.w3.org/2000/svg">
<ellipse cx="218.676" cy="396.181" rx="210.984" ry="59.0489" transform="rotate(12.1079 218.676 396.181)" fill="#464753"/>
<path d="M331.265 71.1929C269.889 249.565 125.683 355.196 125.683 355.196L322.891 397.503C322.891 397.503 392.641 -107.179 331.265 71.1929Z" fill="#464753" stroke="#464753"/>
<path d="M145.722 453.436C145.722 453.436 100.829 473.815 109.574 484.337C118.32 494.859 164.962 498.912 179.538 498.912C194.115 498.912 145.722 453.436 145.722 453.436Z" fill="#464753"/>
<path d="M281.541 447.335C281.541 447.335 325.021 467.119 317.483 479.1C309.946 491.081 266.395 498.09 252.703 498.896C239.012 499.702 281.541 447.335 281.541 447.335Z" fill="#464753"/>
<path d="M100.282 598.029V534.478L115.441 578.788L132.349 569.46L163.25 598.029L195.9 570.626L221.553 617.269L244.875 568.294L264.698 588.7L279.857 560.714L295.599 588.7L320.669 553.718H328.249L336.994 534.478V573.541L328.249 568.294L311.341 604.442L295.599 622.516V639.424L279.857 617.269L264.698 654L244.875 622.516L229.716 654L215.14 639.424L205.228 654L190.653 639.424L163.25 654L152.172 639.424L127.102 588.7L100.282 598.029Z" fill="#464753"/>
<path d="M190.568 535.527C194.617 533.948 198.675 533.314 202.753 532.408C204.969 531.915 206.959 535.108 206.402 537.058C205.559 540.011 194.806 535.712 194.806 533.408" stroke="#464753" stroke-width="6" stroke-linecap="round" stroke-linejoin="round"/>
<path d="M233.214 535.899C237.263 534.319 241.321 533.686 245.399 532.78C247.615 532.287 249.605 535.48 249.048 537.43C248.205 540.383 237.452 536.083 237.452 533.78" stroke="#464753" stroke-width="6" stroke-linecap="round" stroke-linejoin="round"/>
</svg>
